# xmcd
#
# Track frame offsets:
# 150
# 32252
# 73964
# 119939
# 145803
# 192471
# 236175
# 239142
# 265543
#
# Disc length: 3740 seconds
#
#
# Revision: 0
# Processed by: cddbd v1.5.2PL0 Copyright (c) Steve Scherf et al.
# Submitted via: FreeRIP 2.941 
#
DISCID=8e0e9a09
DTITLE=Larry Carlton - Live! With Robben Ford
DYEAR=2007
DGENRE=Blues
TTITLE0=That Road
TTITLE1=Burnable
TTITLE2=Cold Gold
TTITLE3=Rio Samba
TTITLE4=Derrick's Blues
TTITLE5=Two Bad
TTITLE6=Talk To Your Daughter
TTITLE7=Too Much
TTITLE8=Interview
EXTD=Live in Tokio
EXTT0=
EXTT1=
EXTT2=
EXTT3=
EXTT4=
EXTT5=
EXTT6=
EXTT7=
EXTT8=
PLAYORDER=
